<svg id="bold" enable-background="new 0 0 24 24" height="512" viewBox="0 0 24 24" width="512" xmlns="http://www.w3.org/2000/svg"><path d="m8.953 19c-2.77 0-5.265-1.653-6.385-4.126l-1.382.986c-.229.163-.529.186-.779.057s-.407-.386-.407-.667v-6.5c0-.281.157-.538.406-.667.25-.129.551-.107.779.057l1.383.986c1.12-2.473 3.616-4.126 6.385-4.126 2.897 0 5.524 1.814 6.539 4.515.131.349-.014.741-.341.921l-2.844 1.564 2.845 1.564c.327.18.472.572.341.921-1.015 2.701-3.642 4.515-6.54 4.515z"/><path d="m21 15c-1.127 0-2.15-.64-2.66-1.611l-1.116.559c-.155.077-.341.069-.486-.022-.148-.092-.238-.253-.238-.426v-3c0-.173.09-.334.237-.425.146-.091.331-.1.486-.022l1.116.559c.511-.972 1.534-1.612 2.661-1.612 1.654 0 3 1.346 3 3s-1.346 3-3 3z"/></svg>